<?xml version="1.0" encoding="utf-8"?>
<!-- Generator: Adobe Illustrator 19.1.0, SVG Export Plug-In . SVG Version: 6.00 Build 0)  -->
<svg version="1.1" id="Ebene_1" xmlns="http://www.w3.org/2000/svg" xmlns:xlink="http://www.w3.org/1999/xlink" x="0px" y="0px"
	 viewBox="0 0 186.1 108.7" style="enable-background:new 0 0 186.1 108.7;" xml:space="preserve">
<style type="text/css">
	.st0{fill:#494948;}
	.st1{fill:#C5C6C6;}
	.st2{fill:#1E398F;}
	.st3{fill:none;}
</style>
<g>
	<path class="st0" d="M28,59.4H12.3C5.5,59.4,0,64.7,0,71.2v25.4c0,6.6,5.4,12,11.9,12h16.4c6.6,0,11.9-5.4,11.9-12V71.2
		C40.3,64.7,34.8,59.4,28,59.4z M31.4,72.4v23.2c0,2.7-2.2,4.8-4.8,4.8H13.6c-2.6,0-4.7-2.1-4.7-4.8V72.4c0-2.7,2.2-4.8,4.8-4.8
		h12.8C29.2,67.6,31.4,69.8,31.4,72.4z"/>
	<path class="st0" d="M80,59.4H50.2c-2,0-3.6,1.5-3.6,3.5v42.1c0,2.1,1.7,3.8,3.8,3.8h1.4c2.1,0,3.8-1.7,3.8-3.8V88.3h22.9
		c2.1,0,3.8-1.5,3.8-3.6v-1.1c0-2-1.6-3.6-3.8-3.6H55.6V67.6H80c2.1,0,3.8-1.5,3.8-3.6V63C83.8,60.9,82.2,59.4,80,59.4z"/>
	<path class="st0" d="M137.2,59.4h-1.4c-2.1,0-3.8,1.6-3.8,3.7V105c0,2.1,1.7,3.7,3.8,3.7h1.4c2.1,0,3.8-1.7,3.8-3.7V63.1
		C141,61.1,139.3,59.4,137.2,59.4z"/>
	<path class="st0" d="M176.4,79.5h-16.2c-3.3,0-4.8-1.9-4.8-3.8V72c0-2.8,1.9-4.4,5-4.4h20.5c2.1,0,3.8-1.5,3.8-3.6V63
		c0-2-1.7-3.6-3.9-3.6h-22.1c-7.9,0-12.2,6.6-12.2,11.2v6.3c0,5.4,4.4,11.3,10.6,11.3c1.3,0,5.5,0,9.6,0c3,0,5.8,0,6.9,0
		c3,0,3.6,1.7,3.6,3.2v4c0,0.5-0.1,5-3.6,5H150c-2.2,0-3.8,1.5-3.8,3.6v1.1c0,2.1,1.6,3.6,3.8,3.6H175c6.8,0,11.1-4.7,11.1-12v-6.8
		C186.1,83.1,181.2,79.5,176.4,79.5z"/>
	<path class="st0" d="M122.7,59.4H92.9c-2,0-3.6,1.5-3.6,3.5v42.1c0,2.1,1.7,3.8,3.8,3.8h1.4c2.1,0,3.8-1.7,3.8-3.8V88.3h22.9
		c2.1,0,3.8-1.5,3.8-3.6v-1.1c0-2-1.6-3.6-3.8-3.6H98.3V67.6h24.4c2.1,0,3.8-1.5,3.8-3.6V63C126.4,60.9,124.8,59.4,122.7,59.4z"/>
</g>
<rect x="0.1" class="st1" width="40.3" height="49"/>
<rect x="132" class="st2" width="8.9" height="49"/>
<rect x="46.7" class="st1" width="37.1" height="49"/>
<rect x="89.3" class="st1" width="37.1" height="49"/>
<rect x="146.4" class="st1" width="39.7" height="49"/>
<rect x="185.5" y="102.6" class="st3" width="0.6" height="0.3"/>
</svg>
