<?xml version="1.0" encoding="UTF-8" standalone="no"?>
<svg
   id="Warstwa_1"
   data-name="Warstwa 1"
   viewBox="0 0 925 316"
   version="1.1"
   sodipodi:docname="lmf-logo-black-rgb.svg"
   width="925"
   height="316"
   inkscape:version="1.1.1 (c3084ef, 2021-09-22)"
   xmlns:inkscape="http://www.inkscape.org/namespaces/inkscape"
   xmlns:sodipodi="http://sodipodi.sourceforge.net/DTD/sodipodi-0.dtd"
   xmlns="http://www.w3.org/2000/svg"
   xmlns:svg="http://www.w3.org/2000/svg">
  <sodipodi:namedview
     id="namedview375"
     pagecolor="#ffffff"
     bordercolor="#666666"
     borderopacity="1.0"
     inkscape:pageshadow="2"
     inkscape:pageopacity="0.0"
     inkscape:pagecheckerboard="0"
     showgrid="false"
     inkscape:zoom="0.36388287"
     inkscape:cx="342.14307"
     inkscape:cy="361.38003"
     inkscape:window-width="1680"
     inkscape:window-height="997"
     inkscape:window-x="2107"
     inkscape:window-y="98"
     inkscape:window-maximized="0"
     inkscape:current-layer="Warstwa_1"
     width="1327px" />
  <defs
     id="defs302">
    <style
       id="style300">.cls-1{fill:#141414;}</style>
  </defs>
  <path
     class="cls-1"
     d="m 545.38,106.7 v 4 h -22.51 v -36 l 4.37,0.05 v 32 z"
     id="path304" />
  <path
     class="cls-1"
     d="m 575.57,106.85 v 3.81 h -6.32 l -1.54,-3 c -1.6,2.31 -4.27,3.49 -7.71,3.49 -5.19,0 -8.69,-2.62 -8.69,-7.4 0,-10.28 16.35,-3.75 16.35,-9.25 v -0.16 c 0,-2.26 -1.55,-4.52 -5.3,-4.52 -3.34,0 -5.24,1.8 -6.27,4.57 l -3.6,-1.85 a 10.17,10.17 0 0 1 10,-6.58 c 5.65,0 9.45,3.4 9.45,8.59 v 12.28 z m -7.91,-5 v -3.14 c -4.12,2.11 -12.08,0.16 -12.08,5.19 0,3 2.67,3.4 4.57,3.4 5.85,0.02 7.51,-3.38 7.51,-5.43 z"
     id="path306" />
  <path
     class="cls-1"
     d="m 605.58,98.58 c 0,5.75 -3.14,12.59 -11.05,12.59 a 9.08,9.08 0 0 1 -7.51,-3.34 l -1.75,2.83 h -2.62 v -36 h 4.27 l -0.16,14.9 a 9.23,9.23 0 0 1 7.77,-3.6 c 7.91,0.04 11.05,6.91 11.05,12.62 z m -4.27,0 c 0,-5.35 -2.62,-8.74 -7.14,-8.74 -4.52,0 -7.82,3.34 -7.82,8.48 0,5.65 3.29,9 7.82,9 4.53,0 7.14,-3.4 7.14,-8.74 z"
     id="path308" />
  <path
     class="cls-1"
     d="m 613.21,98.32 c 0,-5.91 3.34,-12.34 11.46,-12.34 8.12,0 11.46,6.43 11.46,12.34 0,6.43 -3.34,12.85 -11.46,12.85 -8.12,0 -11.46,-6.42 -11.46,-12.85 z m 18.66,0 c 0,-5.14 -2.57,-8.48 -7.2,-8.48 -4.63,0 -7.19,3.34 -7.19,8.48 0,5.65 2.57,9 7.19,9 4.62,0 7.2,-3.32 7.2,-9 z"
     id="path310" />
  <path
     class="cls-1"
     d="m 666.75,92.56 -3.65,1.7 c -1.23,-3.13 -2.31,-4.42 -5,-4.42 -5.7,0 -6.63,5.7 -6.63,9.92 v 7 h 5 v 3.86 h -13.88 v -3.82 h 4.58 V 90.35 h -4.06 V 86.5 h 6.68 l 2,3.19 a 7.69,7.69 0 0 1 6.69,-3.71 c 3.52,0.02 6.52,1.86 8.27,6.58 z"
     id="path312" />
  <path
     class="cls-1"
     d="m 697.51,106.85 v 3.81 h -6.32 l -1.54,-3 c -1.59,2.31 -4.27,3.49 -7.71,3.49 -5.19,0 -8.69,-2.62 -8.69,-7.4 0,-10.28 16.35,-3.75 16.35,-9.25 v -0.16 c 0,-2.26 -1.54,-4.52 -5.3,-4.52 -3.34,0 -5.24,1.8 -6.27,4.57 l -3.59,-1.85 a 10.15,10.15 0 0 1 10,-6.58 c 5.65,0 9.46,3.4 9.46,8.59 v 12.28 z m -7.91,-5 v -3.14 c -4.11,2.11 -12.08,0.16 -12.08,5.19 0,3 2.67,3.4 4.57,3.4 5.91,0.02 7.51,-3.38 7.51,-5.43 z"
     id="path314" />
  <path
     class="cls-1"
     d="m 726.05,104.54 c -1.49,4.27 -4.31,6.63 -9,6.63 -5.66,0 -8.94,-3.44 -8.94,-9.3 V 90.35 h -6.48 V 86.5 h 6.48 v -8.64 h 4.26 v 8.64 h 12.49 v 3.85 h -12.48 v 10.85 c 0,2 0,6.12 4.73,6.12 3.34,0 4.32,-2 5.35,-4.58 z"
     id="path316" />
  <path
     class="cls-1"
     d="m 733.31,98.32 c 0,-5.91 3.34,-12.34 11.47,-12.34 8.13,0 11.46,6.43 11.46,12.34 0,6.43 -3.34,12.85 -11.46,12.85 -8.12,0 -11.47,-6.42 -11.47,-12.85 z m 18.66,0 c 0,-5.14 -2.57,-8.48 -7.19,-8.48 -4.62,0 -7.2,3.34 -7.2,8.48 0,5.65 2.57,9 7.2,9 4.63,0 7.22,-3.32 7.22,-9 z"
     id="path318" />
  <path
     class="cls-1"
     d="m 785.64,106.8 v 3.86 h -22.72 v -3.86 h 9.2 V 90.35 H 764 V 86.5 h 12.44 l 0.05,20.3 z M 776.9,80.64 h -6 v -6 h 6 z"
     id="path320" />
  <path
     class="cls-1"
     d="m 817.3,92.56 -3.65,1.7 c -1.23,-3.13 -2.31,-4.42 -5,-4.42 -5.71,0 -6.63,5.7 -6.63,9.92 v 7 h 5 v 3.86 h -13.87 v -3.82 h 4.57 V 90.35 h -4.06 V 86.5 h 6.68 l 2,3.19 A 7.66,7.66 0 0 1 809,86 c 3.52,0 6.56,1.84 8.3,6.56 z"
     id="path322" />
  <path
     class="cls-1"
     d="m 847.22,98.58 v 1.13 h -18.87 c 0.36,4.73 3,7.66 8,7.66 3.44,0 5.65,-1.44 6.68,-4.58 l 3.6,1.85 c -1.54,3.65 -4.58,6.58 -10.44,6.58 -8.78,0 -12.12,-6.53 -12.12,-12.64 0,-6.11 3.23,-12.55 11.87,-12.55 8.35,-0.03 11.59,6.07 11.28,12.55 z m -18.71,-2.68 14.24,0.06 c -0.31,-4.22 -2.93,-6.12 -6.79,-6.12 -4.26,0 -6.73,2.31 -7.45,6.06 z"
     id="path324" />
  <path
     class="cls-1"
     d="m 541.07,174.9 0.15,-27.86 -6.68,12.18 h -2.78 l -6.68,-12.22 0.16,27.86 h -4.37 v -36 h 3.49 l 8.74,15.27 8.74,-15.27 h 3.49 l 0.06,36 z"
     id="path326" />
  <path
     class="cls-1"
     d="m 575.5,162.82 -0.06,1.13 -18.86,-0.05 c 0.36,4.73 3,7.66 8,7.66 3.44,0 5.65,-1.44 6.68,-4.58 l 3.6,1.86 c -1.54,3.64 -4.58,6.57 -10.44,6.57 -8.79,0 -12.13,-6.52 -12.13,-12.64 0,-6.12 3.24,-12.54 11.88,-12.54 8.4,0 11.63,6.12 11.33,12.59 z m -18.71,-2.67 14.23,0.05 c -0.3,-4.21 -2.93,-6.12 -6.78,-6.12 -4.24,0 -6.73,2.32 -7.45,6.07 z m 9,-15.06 h -4.06 l 3.5,-8.74 h 4.57 z"
     id="path328" />
  <path
     class="cls-1"
     d="m 605.93,168.78 c -1.49,4.27 -4.32,6.63 -9,6.63 -5.66,0 -9,-3.44 -9,-9.3 V 154.6 h -6.47 v -3.86 H 588 v -8.63 h 4.27 v 8.63 h 12.49 v 3.86 h -12.5 v 10.84 c 0,2 0,6.12 4.73,6.12 3.34,0 4.31,-2 5.34,-4.58 z"
     id="path330" />
  <path
     class="cls-1"
     d="m 634.91,160.2 -0.06,14.7 h -4.26 v -13.57 -1.13 c 0,-1.23 0,-6.12 -5.55,-6.12 -6.27,0 -6.68,6.17 -6.68,9.87 v 10.95 h -4.27 v -36 h 4.27 l -0.16,15.73 a 8.35,8.35 0 0 1 7.61,-4.42 c 5.5,0.02 9.1,4.08 9.1,9.99 z"
     id="path332" />
  <path
     class="cls-1"
     d="m 643.47,162.56 c 0,-5.91 3.34,-12.33 11.46,-12.33 8.12,0 11.46,6.42 11.46,12.33 0,6.43 -3.33,12.85 -11.46,12.85 -8.13,0 -11.46,-6.41 -11.46,-12.85 z m 18.66,0 c 0,-5.14 -2.57,-8.48 -7.2,-8.48 -4.63,0 -7.19,3.34 -7.19,8.48 0,5.66 2.57,9 7.19,9 4.62,0 7.2,-3.34 7.2,-9 z"
     id="path334" />
  <path
     class="cls-1"
     d="m 697,138.92 v 36 h -2.62 l -1.74,-2.83 a 9.07,9.07 0 0 1 -7.51,3.34 c -7.92,0 -11.05,-6.83 -11.05,-12.59 0,-5.76 3.13,-12.59 11.05,-12.59 a 9.17,9.17 0 0 1 7.76,3.6 l -0.15,-14.91 z m -3.7,23.64 c 0,-5.14 -3.29,-8.48 -7.81,-8.48 -4.52,0 -7.14,3.4 -7.14,8.74 0,5.34 2.62,8.74 7.14,8.74 4.52,0 7.76,-3.34 7.76,-9 z"
     id="path336" />
  <path
     class="cls-1"
     d="m 728.31,162.82 v 1.13 l -18.87,-0.05 c 0.36,4.73 3,7.66 8,7.66 3.45,0 5.66,-1.44 6.68,-4.58 l 3.6,1.86 c -1.54,3.64 -4.57,6.57 -10.43,6.57 -8.79,0 -12.13,-6.52 -12.13,-12.64 0,-6.12 3.23,-12.54 11.87,-12.54 8.35,0 11.59,6.12 11.28,12.59 z m -18.71,-2.67 14.24,0.05 c -0.31,-4.21 -2.93,-6.12 -6.79,-6.12 -4.26,0 -6.73,2.32 -7.45,6.07 z"
     id="path338" />
  <path
     class="cls-1"
     d="m 739.55,167 c 1.29,2.83 2.68,4.58 7.51,4.58 2.72,0 5.08,-0.57 5.08,-3.45 0,-2.62 -2,-2.82 -5.65,-3.54 -4.52,-0.88 -9.1,-2.06 -9.1,-7.15 0,-4.78 4,-7.19 9,-7.19 5.19,0 8.58,2.62 10,6.58 l -3.6,1.85 c -1,-2.47 -2.36,-4.58 -6.53,-4.58 -2.67,0 -4.57,0.88 -4.57,3.34 0,1.85 1,2.42 4.88,3.19 4.47,0.87 9.87,1.75 9.87,7.5 0,5.2 -4.27,7.3 -9.92,7.3 -5.35,0 -9,-2.62 -10.54,-6.57 z"
     id="path340" />
  <path
     class="cls-1"
     d="m 526.26,207.12 v 11.67 h 15.53 v 4 h -15.53 v 16.39 h -4.36 v -36 h 22.46 v 4 z"
     id="path342" />
  <path
     class="cls-1"
     d="m 549.52,226.81 c 0,-5.91 3.34,-12.34 11.47,-12.34 8.13,0 11.46,6.43 11.46,12.34 0,6.42 -3.34,12.85 -11.46,12.85 -8.12,0 -11.47,-6.43 -11.47,-12.85 z m 18.66,0 c 0,-5.14 -2.57,-8.48 -7.19,-8.48 -4.62,0 -7.2,3.34 -7.2,8.48 0,5.65 2.57,9 7.2,9 4.63,0 7.19,-3.35 7.19,-9 z"
     id="path344" />
  <path
     class="cls-1"
     d="m 603.06,221.05 -3.65,1.7 c -1.23,-3.14 -2.31,-4.42 -5,-4.42 -5.71,0 -6.63,5.7 -6.63,9.92 v 7 h 5 v 3.85 h -13.87 v -3.85 h 4.57 v -16.41 h -4.06 V 215 h 6.68 l 2,3.18 a 7.66,7.66 0 0 1 6.68,-3.7 c 3.5,-0.01 6.54,1.84 8.28,6.57 z"
     id="path346" />
  <path
     class="cls-1"
     d="m 636.32,225.32 v 14 h -4.27 v -14 c 0,-2.78 0,-7 -3,-7 -2.36,0 -4.16,2.62 -4.16,9.87 v 10.94 h -4.17 l -0.1,-14 c 0,-3.44 -0.26,-7 -3,-7 -2.37,0 -4.16,2.62 -4.16,9.87 v 11.1 h -4.12 V 215 h 2.63 l 1.38,2.21 a 5.5,5.5 0 0 1 4.94,-2.73 c 3,0 4.68,1.85 5.6,4.11 1.08,-2.31 2.93,-4.11 6,-4.11 6.64,-0.01 6.43,7.7 6.43,10.84 z"
     id="path348" />
  <path
     class="cls-1"
     d="m 666.52,227.06 v 1.14 l -18.87,-0.06 c 0.36,4.73 3,7.66 8,7.66 3.44,0 5.66,-1.44 6.68,-4.57 l 3.6,1.85 c -1.54,3.65 -4.57,6.58 -10.43,6.58 -8.79,0 -12.13,-6.53 -12.13,-12.65 0,-6.12 3.23,-12.54 11.87,-12.54 8.35,0 11.59,6.12 11.28,12.59 z m -18.71,-2.67 14.24,0.05 c -0.31,-4.21 -2.93,-6.11 -6.79,-6.11 -4.26,0 -6.73,2.31 -7.45,6.06 z"
     id="path350" />
  <path
     class="cls-1"
     d="m 695.36,235.29 v 3.85 h -21.69 v -3.85 h 8.74 v -28.27 h -7.15 v -3.86 h 11.41 v 3.84 0 28.27 z"
     id="path352" />
  <path
     class="cls-1"
     d="m 725.29,235.29 v 3.85 H 703.6 v -3.85 h 8.73 L 712.28,207 h -7.14 v -3.86 h 11.41 v 3.86 0 28.27 z"
     id="path354" />
  <path
     class="cls-1"
     d="m 755.36,227.06 -0.05,1.14 -18.87,-0.06 c 0.36,4.73 3,7.66 8,7.66 3.44,0 5.65,-1.44 6.68,-4.57 l 3.6,1.85 c -1.54,3.65 -4.58,6.58 -10.44,6.58 -8.79,0 -12.13,-6.53 -12.13,-12.65 0,-6.12 3.24,-12.54 11.88,-12.54 8.4,0 11.64,6.12 11.33,12.59 z m -18.71,-2.67 14.24,0.05 c -0.31,-4.21 -2.93,-6.11 -6.79,-6.11 -4.26,0 -6.73,2.31 -7.45,6.06 z"
     id="path356" />
  <path
     class="cls-1"
     d="m 766.6,231.23 c 1.29,2.83 2.67,4.57 7.5,4.57 2.73,0 5.09,-0.56 5.09,-3.44 0,-2.62 -2,-2.83 -5.65,-3.55 -4.52,-0.87 -9.1,-2.05 -9.1,-7.14 0,-4.78 4,-7.2 8.95,-7.2 5.19,0 8.58,2.62 10,6.58 l -3.6,1.85 c -1,-2.47 -2.37,-4.57 -6.53,-4.57 -2.67,0 -4.57,0.87 -4.57,3.34 0,1.85 1,2.41 4.88,3.18 4.47,0.88 9.87,1.75 9.87,7.51 0,5.19 -4.27,7.3 -9.92,7.3 -5.35,0 -9,-2.62 -10.54,-6.58 z"
     id="path358" />
  <rect
     class="cls-1"
     x="311.90002"
     y="156.16"
     width="137.05"
     height="3.21"
     id="rect360" />
  <path
     class="cls-1"
     d="M 916.85,23.93 V 291.61 H 452.16 V 23.93 h 464.69 m 3.22,-3.21 H 449 v 274.1 H 920.12 V 20.72 Z"
     id="path362" />
  <polygon
     class="cls-1"
     points="265.49,325.51 244.07,325.51 244.07,373.69 244.07,394.03 265.49,394.03 308.32,394.03 308.32,373.69 265.49,373.69 "
     id="polygon364"
     transform="translate(-202,-202)" />
  <polygon
     class="cls-1"
     points="436.8,325.51 415.39,325.51 415.39,345.85 415.39,394.03 436.8,394.03 436.8,345.85 483.92,345.85 483.92,325.51 "
     id="polygon366"
     transform="translate(-202,-202)" />
  <circle
     class="cls-1"
     cx="257.10999"
     cy="166.34"
     r="12.85"
     id="circle368" />
  <path
     class="cls-1"
     d="M 179.13,127.51 157.86,164.34 136.3,127 l -2,-3.49 H 114.9 V 192 h 21.4 v -16.84 c 0,-6.67 -2.19,-17.39 -2.19,-17.39 l 12.68,25.76 2.4,4.16 h 17.22 l 2.46,-4.29 12.4,-25.4 c 0,0 -2.14,10.52 -2.14,16.92 V 192 h 21.41 v -68.49 h -19.1 z"
     id="path370" />
  <path
     class="cls-1"
     d="M 157.71,3.59 A 154.18,154.18 0 1 0 311.9,157.77 154.18,154.18 0 0 0 157.71,3.59 Z m 0,305.24 C 74.42,308.83 6.65,241.06 6.65,157.77 6.65,74.48 74.42,6.71 157.71,6.71 c 83.29,0 151.06,67.77 151.06,151.06 0,83.29 -67.77,151.06 -151.06,151.06 z"
     id="path372" />
</svg>
