<?xml version="1.0" encoding="UTF-8" standalone="no"?>
<svg
   xmlns:svg="http://www.w3.org/2000/svg"
   xmlns="http://www.w3.org/2000/svg"
   width="35.222652mm"
   height="35.201172mm"
   viewBox="0 0 35.22265 35.201172"
   version="1.1"
   id="svg8"
>
  <path
     style="fill:#333333;fill-opacity:1;stroke-width:0.0661455"
     d="m 31.254643,35.18641 c -0.20972,-0.0348 -0.3554,-0.119858 -0.54103,-0.315759 -0.13971,-0.147441 -3.00791,-3.287855 -6.37376,-6.97869 -3.36585,-3.690837 -6.13111,-6.717181 -6.14501,-6.725208 -0.0139,-0.008 -0.1796,0.08963 -0.36821,0.217022 -1.15458,0.779817 -3.13839,1.503164 -4.67346,1.704061 -2.5466,0.33328 -5.1055502,-0.162145 -7.2897302,-1.41132 -3.89471,-2.227461 -6.14685001,-6.445789 -5.83474001,-10.928655 0.0606,-0.8708454 0.38539,-2.3779846 0.68245,-3.1670934 C 3.0535128,1.3585878 10.015983,-1.6518967 16.115643,0.92006356 c 2.62235,1.10573464 4.76225,3.18284954 6.02577,5.84898724 0.39853,0.8409225 0.91319,2.7642701 0.9911,3.7034692 0.20991,2.533585 -0.27924,4.781125 -1.50637,6.92151 l -0.47037,0.820422 6.92606,6.31784 c 7.7697,7.087406 7.22545,6.52367 7.06949,7.322558 -0.15103,0.773597 -0.91285,1.853084 -1.79149,2.538495 -0.72139,0.562744 -1.56907,0.882092 -2.10509,0.793039 z M 16.048203,20.424063 c 1.73443,-0.888177 3.0944,-2.188206 4.08017,-3.900333 1.00883,-1.752157 1.42326,-3.506351 1.3207,-5.590247 -0.0487,-0.9887222 -0.54548,-2.8406933 -0.99912,-3.7241105 -0.91079,-1.7741073 -2.25571,-3.1964602 -3.94046,-4.1674201 -2.98849,-1.7223395 -6.6674102,-1.7618649 -9.6799302,-0.1039998 -3.42303,1.8837816 -5.40575,5.5995836 -5.08893,9.5371464 0.0776,0.964007 0.53652,2.612405 0.95811,3.441154 1.79201,3.52279 5.20662,5.616131 9.0549702,5.551187 1.06218,-0.01792 1.40132,-0.07287 2.59869,-0.42103 0.81324,-0.23647 1.26859,-0.403576 1.69581,-0.622348 z"
     id="path26" />
</svg>
